<?xml version="1.0" encoding="UTF-8"?><svg id="Calque_2" xmlns="http://www.w3.org/2000/svg" viewBox="0 0 383.23 302.79"><g id="Calque_1-2"><path d="M0,159.63H27.52v89.02c3.62,0,6.93-.03,10.25,0,8.77,.09,13.95,5.19,14.12,13.91,.06,3.33,.01,6.67,.01,10.16H331.36c0-3.59-.05-6.93,.01-10.26,.16-8.51,5.36-13.69,13.84-13.81,3.34-.05,6.67,0,10.33,0v-88.81h27.52v142.77c-1.4,.06-2.73,.17-4.05,.17-125.1,0-250.19,0-375.29,0-1.24,0-2.48-.12-3.73-.18,0-47.66,0-95.31,0-142.97Z" style="fill:#fff;"/><path d="M0,110.23c1.11-.07,2.23-.2,3.34-.2,40.74-.01,81.49-.01,122.23,0,1.22,0,2.44,.1,3.88,.17v26.87c-1.69,0-3.15,0-4.62,0-40.12,0-80.24,0-120.36,0-1.49,0-2.99,.07-4.48,.11v-26.95Z" style="fill:#fff;"/><path d="M0,40.61c.73-2.74,1.32-5.53,2.21-8.22C6.89,18.32,16.15,8.52,29.96,3.05c.54-.21,1.11-.35,2.41-.75-4.88,9.98-3.94,20.1-3.96,30.11-.03,16.82,0,33.64,0,50.46,0,1.36,0,2.73,0,4.9H0V40.61Z" style="fill:#fff;"/><path d="M332.39,87.47H51.06c-.07-1.39-.19-2.7-.19-4-.01-20.58-.03-41.17,0-61.75C50.88,8.38,59.2,.03,72.61,.02c79.34-.03,158.69-.03,238.03,0,13.42,0,21.72,8.34,21.74,21.69,.03,20.58,0,41.17,0,61.75,0,1.22,0,2.44,0,4Z" style="fill:#fff;"/><path d="M50.45,159.54h48.11c9.23,0,18.46,.09,27.69-.05,2.99-.05,4.39,.45,5.18,3.92,6.54,28.59,31.54,48.25,60.65,48.07,29.04-.18,53.63-20.16,60.01-48.93,.51-2.28,1.2-3.06,3.57-3.05,25.07,.08,50.14,.05,75.21,.06,.61,0,1.21,.09,2.11,.15,.07,1.3,.18,2.51,.18,3.71,.01,20.33-.04,40.66,.06,60.99,.01,2.58-.67,3.86-3.19,4.94-8.36,3.58-14.44,9.69-18.06,18.05-.96,2.21-2,3.2-4.62,3.2-77.21-.08-154.42-.08-231.63-.02-2.39,0-3.46-.85-4.38-2.98-3.72-8.61-9.98-14.74-18.56-18.61-1.16-.52-2.6-2.13-2.6-3.24-.15-21.58-.1-43.16-.08-64.74,0-.35,.15-.7,.34-1.48Z" style="fill:#fff;"/><path d="M152.59,110.19h78.18c.12,1.05,.31,2,.31,2.94,.02,11.84,.12,23.67-.01,35.51-.22,19.61-12.84,35.7-30.76,39.46-24.42,5.12-46.54-11.63-47.93-36.92-.72-13.17-.17-26.4-.18-39.61,0-.35,.19-.7,.39-1.38Zm50,22.92h-22.1v21.88h22.1v-21.88Z" style="fill:#fff;"/><path d="M253.74,136.8v-26.51h129.22v26.51H253.74Z" style="fill:#fff;"/><path d="M383.12,87.39h-28.28c0-1.51,0-2.83,0-4.16,0-17.81-.04-35.62,.02-53.43,.03-9.17,.43-18.37-4.04-27.62,10.07,3.31,17.47,8.86,23.28,16.58,5.3,7.03,8.65,15.03,8.91,23.78,.43,14.8,.12,29.62,.12,44.85Z" style="fill:#fff;"/></g></svg>