<?xml version="1.0" encoding="UTF-8"?>
<svg id="Calque_2" data-name="Calque 2" xmlns="http://www.w3.org/2000/svg" fill="#FFFFFF" viewBox="0 0 899.04 845.11">
  <defs>
    <style>
      .cls-1 {
        stroke-width: 0px;
      }
    </style>
  </defs>
  <g id="Calque_1-2" data-name="Calque 1">
    <path class="cls-1" d="m0,612.87c0-132.69,0-265.39,0-398.08.19-1.96.55-3.92.56-5.87.12-39.33.18-78.66.31-118,0-1.95-.09-4.26.85-5.79,4.58-7.48,8.57-15.62,14.48-21.93,16.11-17.21,37.18-26.65,58.94-34.37C125.63,10.91,178.16,3.28,231.32,1.09c47.42-1.96,94.97-1.55,142.28,3.57,40.44,4.37,80.34,11.58,118.58,26.04,18.62,7.04,36.34,15.79,50.94,29.77,10.97,10.51,18.31,22.61,17.99,38.57-.24,11.82.5,23.65.57,35.48.29,55.48.5,110.95.72,166.43.03,7.92,0,15.84,0,23.48,1.25.36,1.56.53,1.87.53,7.83.02,15.66.01,23.5.03,55.44.13,110.91-.87,165.79,9.7,30.96,5.96,61.55,12.93,90.22,26.38,21.5,10.09,41.64,22.07,52.42,44.78,1.23,2.59,2.05,5.64,2.07,8.48.36,61.81.79,123.63.77,185.45-.01,50.33-.58,100.66-.9,150.98-.07,11.26-4.92,20.43-11.97,28.86-14.17,16.96-32.91,26.88-53.1,34.21-55.09,20-112.3,29.26-170.65,30.86-33.62.92-67.31.18-100.94-.86-46.93-1.45-92.98-9-137.85-23.05-20.4-6.39-39.99-14.75-57.48-27.3-15.78-11.32-26.87-25.75-28.73-45.88-.32-3.46-.81-6.91-1.15-9.8-8.7,0-17-.2-25.3.03-43.67,1.21-87.2-.03-130.59-5.69-31.74-4.13-63.11-9.91-93.69-19.36-22-6.8-43.3-15.23-61.54-29.94-15.7-12.66-26.34-27.56-24.32-49.13.64-6.87-.5-13.9-.83-20.86Zm625.9-133.52c15.45-.9,46.07-2.02,76.57-4.63,36.7-3.14,72.86-9.66,107.69-22.19,15.11-5.43,29.53-12.24,41.8-22.87,6.65-5.76,6.6-7.89-.15-13.67-9.84-8.44-21.2-14.34-33.11-19.2-28.2-11.51-57.75-17.77-87.74-22.24-37.95-5.66-76.15-8.79-114.47-8.05-29.26.57-58.56,2.57-87.7,5.35-37.17,3.55-73.7,10.81-108.81,24.01-13.31,5-26.09,11.01-36.06,21.59-4.03,4.27-4.29,7.19-.01,11.15,4.48,4.15,9.43,7.97,14.69,11.05,17.07,10,35.75,16.06,54.77,20.98,51.59,13.34,104.26,17.56,172.52,18.73ZM273.79,154.89c.01-.45.02-.9.03-1.35,19.81,0,39.67.86,59.43-.19,32.92-1.75,65.57-6.11,97.78-13.39,23.74-5.36,47.21-11.6,68.63-23.5,5.86-3.25,11-7.97,15.99-12.54,3.44-3.15,3.16-7.37-.1-10.69-3.01-3.07-6.12-6.41-9.86-8.31-11.39-5.77-22.74-11.94-34.74-16.11-45.95-15.96-93.73-22.56-142.07-24.8-46.75-2.16-93.53-2.77-140.13,3.58-35.16,4.79-69.97,10.89-103.42,23.16-14.43,5.3-28.49,11.36-39.33,22.87-4.2,4.46-4.75,6.35-.12,10.44,6.16,5.44,12.75,10.91,20.09,14.42,40.91,19.57,84.93,27.61,129.53,32.23,25.96,2.69,52.18,2.87,78.29,4.18Zm107.16,326.29c0,16.09-.07,32.92.1,49.75.02,1.74,1.04,3.82,2.26,5.13,7.16,7.69,16.07,12.88,25.6,17.04,41.02,17.9,84.43,26.57,128.6,30.14,60.66,4.91,121.47,6.09,182.04-2.43,32.31-4.55,64.34-10.46,95.05-21.92,14.72-5.49,28.99-11.96,39.91-23.83,1.3-1.42,2.43-3.64,2.45-5.5.17-13.83.08-27.67-.03-41.5-.02-2.73-.5-5.47-.79-8.49-10.7,4.6-20.53,9.58-30.85,13.14-48.01,16.54-97.68,24.72-148.24,27.04-43.92,2.02-87.91,2.98-131.84-.75-36.55-3.1-72.79-8.33-108.08-18.4-18.94-5.4-37.31-12.82-56.19-19.42Zm1.37,215.42c-.43,2.82-1.05,5.06-1.08,7.3-.17,14.83-.28,29.66-.19,44.49,0,1.53,1.16,3.38,2.33,4.52,9.59,9.36,21.26,15.38,33.59,20.13,47.56,18.31,97.42,25.63,147.83,28.51,48.55,2.77,97.21,2.65,145.65-3.54,31.55-4.03,62.84-9.3,93.15-19.19,15.17-4.95,30.17-10.35,43.04-20.42,7.54-5.91,12.37-12.36,10.57-22.62-.82-4.69-.09-9.64-.2-14.47-.18-8.11-.46-16.21-.73-25.21-3.12,1.15-5.27,1.85-7.34,2.72-7.96,3.36-15.71,7.35-23.88,10.09-51.63,17.27-104.93,25.69-159.15,27.87-56.62,2.28-113.21,1.61-169.36-7.52-36.51-5.94-72.55-13.65-106.4-29.3-2.37-1.1-4.81-2.06-7.83-3.35Zm-1.16-108.96c0,15.86-.1,31.01.04,46.16.07,7.86,3.48,13.67,10.39,18.12,13.86,8.92,28.9,15,44.49,19.85,37.35,11.64,75.81,17.62,114.63,20.79,44.55,3.63,89.22,2.38,133.81,0,34.48-1.84,68.38-7.73,101.7-16.79,19.77-5.38,39.3-11.48,56.71-22.74,9.17-5.93,16.3-12.94,14.27-25.43-.79-4.87-.17-9.98-.18-14.98,0-8.24,0-16.49,0-25.33-5.17,2.37-9.64,4.51-14.18,6.47-48.14,20.8-99.12,29.2-150.88,32.74-33.51,2.29-67.2,2.47-100.82,2.48-43.05.02-85.76-4.57-127.87-13.57-28.14-6.01-55.68-14.26-82.12-27.78Zm137.07-430.9c-1.75.55-2.86.77-3.87,1.23-41.07,18.47-84.49,28.05-128.9,33.55-42.39,5.25-84.99,7.36-127.69,6.18-35.3-.97-70.47-3.71-105.36-9.65-28.41-4.84-56.49-10.78-83.37-21.4-8.92-3.52-17.67-7.48-26.94-11.43,0,17.28-.02,34.07.05,50.86,0,.89.47,1.99,1.1,2.62,3.74,3.76,7.06,8.35,11.52,10.92,9.76,5.62,19.79,11.03,30.29,15.04,35.36,13.49,72.39,19.98,109.84,23.91,39.65,4.15,79.44,5.11,119.29,3.64,49.06-1.81,97.52-7.44,144.77-21.37,18.08-5.33,35.72-11.7,51.07-23.17,5.8-4.33,8.93-9.09,8.46-17.05-.85-14.41-.24-28.91-.24-43.86ZM44.14,264.11c-.69.23-1.39.46-2.08.68,0,16.61-.04,33.23.09,49.84.01,1.26,1.04,2.73,2,3.72,7.5,7.72,16.18,13.8,25.92,18.38,23.51,11.05,48.42,17.77,73.87,21.96,27.22,4.48,54.62,9.46,82.09,10.53,40.39,1.57,80.92.28,121.37-.64,15.07-.34,30.44-1.79,44.56-7.75,31.45-13.27,64.27-21.36,97.77-27.01,10.46-1.77,19.22-6.2,26.52-13.68,1.11-1.14,1.91-3.11,1.92-4.71.09-14.17.02-28.33-.13-42.5-.03-2.68-.6-5.36-.97-8.37-6.19,2.63-11.5,4.98-16.89,7.15-40.75,16.48-83.39,24.6-126.9,29.19-36.66,3.86-73.39,5.68-110.24,4.99-34.66-.65-69.13-3.5-103.41-8.83-31.79-4.94-63.1-11.59-93.12-23.42-7.54-2.97-14.91-6.35-22.36-9.54Zm292.56,256.57c-18.43,0-36.41.29-54.37-.07-28.3-.56-56.64-.72-84.86-2.64-19.36-1.31-38.6-4.93-57.78-8.2-25.28-4.31-50.14-10.42-73.98-20.09-7.51-3.05-14.77-6.72-22.56-10.3-.3,1.97-.71,3.41-.72,4.86-.14,15.5-.29,31-.2,46.5,0,1.51,1.36,3.24,2.52,4.47,11.02,11.78,25.24,18.27,40.01,23.66,36.34,13.26,74.15,19.84,112.44,24.07,42,4.65,84.15,4.43,126.31,3.42,4.39-.1,8.77-1.04,13.21-1.59v-64.11Zm1.18-107.75c-3.02,0-5.17-.07-7.32.01-53.48,2.13-106.84,1.26-159.97-6.01-39.34-5.38-77.87-13.79-114.46-29.73-4.04-1.76-8.2-3.24-12.96-5.11-1.64,15.79-1.37,30.7-.5,45.65.49,8.32,4.58,14.23,11.56,18.02,9.19,4.99,18.34,10.27,28.05,14.03,39.23,15.19,80.37,22.15,122.02,25.89,21.52,1.93,43.23,2.07,64.86,2.42,20.8.34,41.61-.07,62.41-.18,2.11-.01,4.35.34,4.44-3.1.54-20.44,1.23-40.88,1.88-61.89Zm-1.01,216.57c-5.67,0-10.48,0-15.3,0-53.29.11-106.57.3-159.5-7.57-33.16-4.93-65.64-12.41-96.91-24.65-7.66-3-15.16-6.43-23.07-9.81,0,13.58.99,26.83-.29,39.86-1.18,12.05,4.61,18.97,13.34,24.96,2.33,1.6,4.72,3.13,7.2,4.48,15.88,8.64,32.91,14.24,50.28,18.94,33.65,9.09,67.87,15.08,102.66,16.89,25.1,1.31,50.27,1.44,75.42,1.79,13.47.19,26.96-.28,40.43-.41,4.3-.04,5.92-1.75,5.84-6.39-.3-17.49-.12-34.99-.12-52.49,0-1.63,0-3.25,0-5.61Z"/>
  </g>
</svg>