<?xml version="1.0" encoding="UTF-8"?><svg id="Calque_2" xmlns="http://www.w3.org/2000/svg" viewBox="0 0 306.47 306.68"><g id="Calque_1-2"><path d="M162.14,306.68h-17.97c-2.17-.25-4.33-.49-6.5-.73-32.36-3.59-61.19-15.59-85.44-37.38C13.42,233.7-3.84,189.84,.71,137.92c2.86-32.65,15.71-61.49,37.57-85.95C67.15,19.66,103.45,2.32,146.72,.19c27.68-1.36,54.04,4.43,78.34,17.82,43.22,23.8,69.68,60.07,78.99,108.64,1.12,5.84,1.63,11.8,2.42,17.71v17.97c-.17,.86-.45,1.71-.51,2.58-1.49,21.39-7.15,41.66-17.5,60.39-23.87,43.16-60.06,69.64-108.59,78.96-5.85,1.12-11.81,1.63-17.72,2.42Zm-9.13-272.55c-65.68,.08-119.12,53.65-119.04,119.35,.08,65.69,53.64,119.14,119.32,119.07,65.65-.07,119.13-53.69,119.05-119.35-.08-65.66-53.69-119.15-119.34-119.07Z" style="fill:#fff;"/><rect x="85.16" y="136.36" width="135.96" height="33.78" style="fill:#fff;"/></g></svg>